<svg width="1080" height="2160" viewBox="0 0 1080 2160" xmlns="http://www.w3.org/2000/svg" font-family="Arial, Helvetica, sans-serif">
  <defs>
    <linearGradient id="bg" x1="0" y1="0" x2="0" y2="1">
      <stop offset="0" stop-color="#0B1220"/>
      <stop offset="0.5" stop-color="#0E1626"/>
      <stop offset="1" stop-color="#0A0F1A"/>
    </linearGradient>
    <linearGradient id="headerG" x1="0" y1="0" x2="0" y2="1">
      <stop offset="0" stop-color="#15233E"/>
      <stop offset="1" stop-color="#0E1626"/>
    </linearGradient>
    <linearGradient id="home" x1="0" y1="0" x2="1" y2="1">
      <stop offset="0" stop-color="#FB923C"/>
      <stop offset="1" stop-color="#F97316"/>
    </linearGradient>
    <linearGradient id="away" x1="0" y1="0" x2="1" y2="1">
      <stop offset="0" stop-color="#38BDF8"/>
      <stop offset="1" stop-color="#0EA5E9"/>
    </linearGradient>
    <!-- ring: green->orange portion, ~62% elapsed so colour sits in orange band -->
    <linearGradient id="ring" x1="0" y1="0" x2="1" y2="1">
      <stop offset="0" stop-color="#22C55E"/>
      <stop offset="1" stop-color="#F97316"/>
    </linearGradient>
    <linearGradient id="progress" x1="0" y1="0" x2="1" y2="0">
      <stop offset="0" stop-color="#22C55E"/>
      <stop offset="1" stop-color="#F97316"/>
    </linearGradient>
    <filter id="soft" x="-30%" y="-30%" width="160%" height="160%">
      <feDropShadow dx="0" dy="8" stdDeviation="18" flood-color="#000000" flood-opacity="0.40"/>
    </filter>
  </defs>

  <rect width="1080" height="2160" fill="url(#bg)"/>

  <!-- ====================== STATUS BAR ====================== -->
  <g fill="#E7EEFB">
    <text x="56" y="74" font-size="32" font-weight="700">9:41</text>
    <g transform="translate(916,50)">
      <rect x="0" y="6" width="26" height="18" rx="3"/>
      <rect x="32" y="2" width="34" height="22" rx="4"/>
      <rect x="74" y="0" width="58" height="26" rx="6"/>
    </g>
  </g>

  <!-- ====================== HEADER ====================== -->
  <rect x="0" y="96" width="1080" height="150" fill="url(#headerG)"/>
  <g>
    <circle cx="78" cy="171" r="40" fill="#1B2942"/>
    <path d="M90 153 L72 171 L90 189" stroke="#E7EEFB" stroke-width="6" fill="none" stroke-linecap="round" stroke-linejoin="round"/>
    <text x="540" y="162" fill="#7E90AE" font-size="24" font-weight="700" text-anchor="middle" letter-spacing="3">TIMER</text>
    <text x="540" y="200" fill="#F4F8FF" font-size="40" font-weight="800" text-anchor="middle">Saturday Run</text>
    <circle cx="1002" cy="171" r="40" fill="#1B2942"/>
    <circle cx="1002" cy="158" r="5.5" fill="#E7EEFB"/>
    <circle cx="1002" cy="171" r="5.5" fill="#E7EEFB"/>
    <circle cx="1002" cy="184" r="5.5" fill="#E7EEFB"/>
  </g>

  <!-- ====================== SCOREBOARD CARD (NEW) ====================== -->
  <g filter="url(#soft)">
    <rect x="40" y="284" width="1000" height="324" rx="36" fill="#13203A" stroke="#26344F" stroke-width="2"/>
  </g>
  <!-- period pill, centered top -->
  <rect x="468" y="306" width="144" height="52" rx="26" fill="#0A1322" stroke="#2C3C5C" stroke-width="2"/>
  <text x="540" y="342" fill="#FBBF24" font-size="28" font-weight="800" text-anchor="middle">Q3</text>

  <!-- HOME column -->
  <g text-anchor="middle">
    <rect x="96" y="390" width="14" height="58" rx="7" fill="url(#home)"/>
    <text x="270" y="424" fill="#9FB2D0" font-size="30" font-weight="700" letter-spacing="2">HOME</text>
    <text x="270" y="520" fill="#F4F8FF" font-size="120" font-weight="900" font-family="Arial Black, Arial, sans-serif">58</text>
    <!-- steppers -->
    <rect x="132" y="552" width="80" height="56" rx="16" fill="#0F1A30" stroke="#2A3A58" stroke-width="2"/>
    <text x="172" y="592" fill="#9FB2D0" font-size="40" font-weight="900" text-anchor="middle">–</text>
    <rect x="232" y="552" width="80" height="56" rx="16" fill="url(#home)"/>
    <text x="272" y="592" fill="#241204" font-size="36" font-weight="900" text-anchor="middle">+</text>
  </g>

  <!-- center VS + possession -->
  <text x="540" y="500" fill="#5C6E8C" font-size="34" font-weight="800" text-anchor="middle">VS</text>
  <text x="540" y="556" fill="#475A78" font-size="20" font-weight="700" text-anchor="middle" letter-spacing="2">POSS.</text>
  <path d="M508 582 L572 582 M508 582 L532 568 M508 582 L532 596" stroke="#FB923C" stroke-width="5" fill="none" stroke-linecap="round" stroke-linejoin="round"/>

  <!-- AWAY column -->
  <g text-anchor="middle">
    <rect x="970" y="390" width="14" height="58" rx="7" fill="url(#away)"/>
    <text x="810" y="424" fill="#9FB2D0" font-size="30" font-weight="700" letter-spacing="2">AWAY</text>
    <text x="810" y="520" fill="#F4F8FF" font-size="120" font-weight="900" font-family="Arial Black, Arial, sans-serif">61</text>
    <rect x="768" y="552" width="80" height="56" rx="16" fill="#0F1A30" stroke="#2A3A58" stroke-width="2"/>
    <text x="808" y="592" fill="#9FB2D0" font-size="40" font-weight="900" text-anchor="middle">–</text>
    <rect x="868" y="552" width="80" height="56" rx="16" fill="url(#away)"/>
    <text x="908" y="592" fill="#04202E" font-size="36" font-weight="900" text-anchor="middle">+</text>
  </g>

  <!-- ====================== CIRCULAR TIMER ====================== -->
  <g transform="translate(540,860)">
    <circle r="232" fill="none" stroke="#334155" stroke-width="26"/>
    <circle r="232" fill="none" stroke="url(#ring)" stroke-width="26" stroke-linecap="round"
            stroke-dasharray="1458" stroke-dashoffset="554" transform="rotate(-90)"/>
    <text x="0" y="20" fill="#FFFFFF" font-size="150" font-weight="800" text-anchor="middle" font-family="Arial Black, Arial, sans-serif">7:24</text>
    <text x="0" y="86" fill="#94A3B8" font-size="32" font-weight="600" text-anchor="middle">Rotation 3 of 6</text>
  </g>

  <!-- ====================== ON COURT STRIP ====================== -->
  <g>
    <text x="56" y="1170" fill="#7E90AE" font-size="24" font-weight="800" letter-spacing="2">ON COURT</text>
    <g font-size="26" font-weight="700">
      <rect x="56" y="1192" width="184" height="60" rx="30" fill="#1B2942" stroke="#2A3A58" stroke-width="1.5"/>
      <text x="148" y="1230" fill="#DCE6F5" text-anchor="middle">#7 Marco</text>
      <rect x="256" y="1192" width="168" height="60" rx="30" fill="#1B2942" stroke="#2A3A58" stroke-width="1.5"/>
      <text x="340" y="1230" fill="#DCE6F5" text-anchor="middle">#3 Leo</text>
      <rect x="440" y="1192" width="190" height="60" rx="30" fill="#1B2942" stroke="#2A3A58" stroke-width="1.5"/>
      <text x="535" y="1230" fill="#DCE6F5" text-anchor="middle">#11 Dino</text>
      <rect x="646" y="1192" width="176" height="60" rx="30" fill="#1B2942" stroke="#2A3A58" stroke-width="1.5"/>
      <text x="734" y="1230" fill="#DCE6F5" text-anchor="middle">#9 Paul</text>
      <rect x="838" y="1192" width="150" height="60" rx="30" fill="#1B2942" stroke="#2A3A58" stroke-width="1.5"/>
      <text x="913" y="1230" fill="#DCE6F5" text-anchor="middle">#5 JR</text>
      <text x="1010" y="1230" fill="#5C6E8C" font-size="30" font-weight="800">›</text>
    </g>
  </g>

  <!-- ====================== PROGRESS BAR ====================== -->
  <rect x="56" y="1290" width="968" height="18" rx="9" fill="#1B2942"/>
  <rect x="56" y="1290" width="600" height="18" rx="9" fill="url(#progress)"/>

  <!-- ====================== STATS ROW ====================== -->
  <g text-anchor="middle">
    <rect x="56" y="1356" width="296" height="150" rx="26" fill="#13203A" stroke="#26344F" stroke-width="1.5"/>
    <text x="204" y="1416" fill="#7E90AE" font-size="26" font-weight="700">⏱ Play Time</text>
    <text x="204" y="1470" fill="#F4F8FF" font-size="44" font-weight="800">24:12</text>

    <rect x="392" y="1356" width="296" height="150" rx="26" fill="#13203A" stroke="#26344F" stroke-width="1.5"/>
    <text x="540" y="1416" fill="#7E90AE" font-size="26" font-weight="700">☕ Breaks</text>
    <text x="540" y="1470" fill="#FBBF24" font-size="44" font-weight="800">3:40</text>

    <rect x="728" y="1356" width="296" height="150" rx="26" fill="#13203A" stroke="#26344F" stroke-width="1.5"/>
    <text x="876" y="1410" fill="#7E90AE" font-size="26" font-weight="700">🏁 Ends At</text>
    <text x="876" y="1458" fill="#FB923C" font-size="40" font-weight="800">8:30 PM</text>
    <text x="876" y="1492" fill="#7E90AE" font-size="24" font-weight="600">in 38m</text>
  </g>

  <!-- ====================== CONTROL BUTTONS ====================== -->
  <g>
    <rect x="56" y="1556" width="620" height="116" rx="34" fill="#EF4444"/>
    <rect x="316" y="1592" width="16" height="44" rx="5" fill="#FFFFFF"/>
    <rect x="344" y="1592" width="16" height="44" rx="5" fill="#FFFFFF"/>
    <text x="404" y="1628" fill="#FFFFFF" font-size="40" font-weight="800">Pause</text>

    <rect x="700" y="1556" width="324" height="116" rx="34" fill="#1B2942" stroke="#2A3A58" stroke-width="2"/>
    <path d="M772 1600 h44 v32 h-44 z M816 1604 l22 -14 v60 l-22 -14 z" fill="#9FB2D0"/>
    <text x="852" y="1628" fill="#DCE6F5" font-size="36" font-weight="800">Skip</text>
  </g>

  <!-- ====================== UP NEXT ROTATION CARD ====================== -->
  <g filter="url(#soft)">
    <rect x="40" y="1724" width="1000" height="372" rx="36" fill="#13203A" stroke="#26344F" stroke-width="2"/>
  </g>
  <g>
    <rect x="40" y="1724" width="14" height="372" rx="7" fill="#22C55E"/>
    <text x="80" y="1796" fill="#F4F8FF" font-size="34" font-weight="800">Rotation 4</text>
    <rect x="350" y="1762" width="170" height="52" rx="26" fill="#10331F"/>
    <text x="435" y="1798" fill="#4ADE80" font-size="24" font-weight="800" text-anchor="middle">UP NEXT</text>
    <text x="1000" y="1796" fill="#7E90AE" font-size="30" font-weight="700" text-anchor="end">10:00</text>

    <!-- player chips grid -->
    <g font-size="26" font-weight="700">
      <rect x="80" y="1846" width="210" height="64" rx="16" fill="#0F1A30"/>
      <text x="185" y="1886" fill="#DCE6F5" text-anchor="middle">#4 Carlo</text>
      <rect x="306" y="1846" width="210" height="64" rx="16" fill="#0F1A30"/>
      <text x="411" y="1886" fill="#DCE6F5" text-anchor="middle">#8 Mike</text>
      <rect x="532" y="1846" width="210" height="64" rx="16" fill="#0F1A30"/>
      <text x="637" y="1886" fill="#DCE6F5" text-anchor="middle">#2 Ron</text>
      <rect x="758" y="1846" width="210" height="64" rx="16" fill="#102a3a"/>
      <text x="863" y="1886" fill="#7FD7F5" text-anchor="middle">#6 Tom ⇄</text>

      <rect x="80" y="1928" width="210" height="64" rx="16" fill="#0F1A30"/>
      <text x="185" y="1968" fill="#DCE6F5" text-anchor="middle">#10 Sam</text>
      <rect x="306" y="1928" width="210" height="64" rx="16" fill="#0F1A30"/>
      <text x="411" y="1968" fill="#DCE6F5" text-anchor="middle">#1 Andy</text>
      <rect x="532" y="1928" width="210" height="64" rx="16" fill="#0F1A30"/>
      <text x="637" y="1968" fill="#DCE6F5" text-anchor="middle">#12 Vic</text>
      <rect x="758" y="1928" width="210" height="64" rx="16" fill="#0F1A30"/>
      <text x="863" y="1968" fill="#DCE6F5" text-anchor="middle">#14 Ben</text>
    </g>
    <text x="80" y="2050" fill="#7E90AE" font-size="26" font-weight="600">10 players · avg 2.4 games each</text>
  </g>
</svg>
